# xmcd
#
# Track frame offsets: 
#        182
#        14392
#        32942
#        55290
#        82042
#        108017
#        125627
#        135295
#        158885
#        177857
#        202210
#
# Disc length: 2954 seconds
#
# Revision: 3
# Processed by: cddbd v1.4PL0 Copyright (c) Steve Scherf et al.
# Submitted via: ExactAudioCopy v0.90b3
#
DISCID=930b880b
DTITLE=Rick James - Motown Legends
DYEAR=1900
DGENRE=Funk
TTITLE0=You And I
TTITLE1=Give It To Me Baby
TTITLE2=Mary Jane
TTITLE3=Cold Blooded
TTITLE4=Love Gun
TTITLE5=Call Me Up
TTITLE6=Stormy Love
TTITLE7=Dream Maker
TTITLE8=She Blew My Mind (69 Times)
TTITLE9=Spacey Love
TTITLE10=Moonchild
EXTD=
EXTT0=
EXTT1=
EXTT2=
EXTT3=
EXTT4=
EXTT5=
EXTT6=
EXTT7=
EXTT8=
EXTT9=
EXTT10=
PLAYORDER=
